<?xml version="1.0" encoding="UTF-8"?>
<!DOCTYPE svg PUBLIC "-//W3C//DTD SVG 1.1//EN" "http://www.w3.org/Graphics/SVG/1.1/DTD/svg11.dtd">
<svg xmlns="http://www.w3.org/2000/svg" version="1.1" width="512px" height="512px" style="shape-rendering:geometricPrecision; text-rendering:geometricPrecision; image-rendering:optimizeQuality; fill-rule:evenodd; clip-rule:evenodd" xmlns:xlink="http://www.w3.org/1999/xlink">
<g><path style="opacity:0.995" fill="#000000" d="M 62.5,-0.5 C 191.167,-0.5 319.833,-0.5 448.5,-0.5C 482.5,7.5 503.5,28.5 511.5,62.5C 511.5,191.167 511.5,319.833 511.5,448.5C 503.5,482.5 482.5,503.5 448.5,511.5C 319.833,511.5 191.167,511.5 62.5,511.5C 28.5,503.5 7.5,482.5 -0.5,448.5C -0.5,319.833 -0.5,191.167 -0.5,62.5C 7.5,28.5 28.5,7.5 62.5,-0.5 Z M 397.5,60.5 C 424.542,58.0668 442.042,69.7335 450,95.5C 452.92,122.564 441.42,140.064 415.5,148C 388.436,150.92 370.936,139.42 363,113.5C 360.287,86.4112 371.787,68.7445 397.5,60.5 Z M 240.5,120.5 C 298.015,117.006 342.182,139.34 373,187.5C 396.333,232.167 396.333,276.833 373,321.5C 342.205,369.815 298.038,391.981 240.5,388C 185.545,379.114 148.378,348.614 129,296.5C 113.03,239.418 126.864,190.918 170.5,151C 191.126,134.518 214.459,124.352 240.5,120.5 Z"/></g>
<g><path style="opacity:0.928" fill="#000000" d="M 400.5,89.5 C 416.654,87.4866 423.487,94.4866 421,110.5C 416.652,118.915 409.819,121.748 400.5,119C 392.085,114.652 389.252,107.819 392,98.5C 393.688,94.3148 396.521,91.3148 400.5,89.5 Z"/></g>
<g><path style="opacity:0.989" fill="#000000" d="M 242.5,149.5 C 294.254,145.946 331.421,167.28 354,213.5C 371.315,264.097 359.482,306.263 318.5,340C 286.306,361.431 251.973,365.431 215.5,352C 166.683,327.542 145.849,288.042 153,233.5C 164.999,186.33 194.833,158.33 242.5,149.5 Z"/></g>
</svg>
