<svg version="1.1" id="Layer_1" xmlns="http://www.w3.org/2000/svg" xmlns:xlink="http://www.w3.org/1999/xlink" x="0px" y="0px"
	 width="100%" viewBox="0 0 512 512" enable-background="new 0 0 512 512" xml:space="preserve">
<path fill="#000000" opacity="1.000000" stroke="none" 
	d="
M0.999999,227.000000 
	C1.000000,209.979111 1.000000,192.958206 1.384541,175.351349 
	C2.509979,171.677505 3.447505,168.621826 3.959150,165.496414 
	C6.805700,148.108078 12.125428,131.519684 19.760254,115.654633 
	C27.636137,99.288666 36.511005,83.521355 49.230762,70.370811 
	C58.007210,61.297112 66.948456,52.311920 76.486427,44.062233 
	C90.963364,31.540678 107.619873,22.201574 125.425117,15.458204 
	C138.113434,10.652761 151.482880,7.602737 164.629532,4.071463 
	C169.975647,2.635461 175.536728,1.999809 181.000000,1.000000 
	C194.020889,1.000000 207.041794,1.000000 220.681427,1.396219 
	C232.284348,3.749628 243.394669,5.182455 254.223053,7.787279 
	C270.343964,11.665255 285.384491,18.427446 299.955414,26.379663 
	C321.293976,38.025387 339.512054,53.499931 355.109924,71.863663 
	C368.510193,87.640053 379.015656,105.445168 386.954773,124.645554 
	C396.392914,147.471313 400.854706,171.384415 401.911377,195.951248 
	C402.171997,202.010208 401.115387,208.113876 401.043518,214.201477 
	C400.871490,228.781601 398.482544,243.066864 393.816193,256.752106 
	C389.336578,269.889648 383.741699,282.677551 378.070251,295.365814 
	C374.952606,302.340729 370.666656,308.793427 366.866058,315.555298 
	C374.512787,316.944061 380.835175,320.369110 386.096039,325.621429 
	C421.592102,361.059540 456.958313,396.628265 492.570618,431.948944 
	C501.403229,440.709229 509.699615,449.591827 513.000000,462.000000 
	C513.000000,467.688049 513.000000,473.376068 512.627930,479.652069 
	C509.654907,492.276031 502.836487,501.251099 492.210297,507.268951 
	C488.309418,509.478119 484.079681,511.106598 480.000000,513.000000 
	C473.978851,513.000000 467.957703,513.000000 461.353607,512.632568 
	C453.015320,510.131561 446.082001,506.642792 440.302185,500.846863 
	C406.196106,466.645691 371.979645,432.554565 337.888702,398.338379 
	C328.727234,389.143280 317.825287,381.164154 315.382141,367.064026 
	C314.081543,367.525665 313.275970,367.642670 312.667267,368.052277 
	C295.629913,379.516449 277.194336,387.940277 257.543121,393.858856 
	C240.630005,398.952789 223.264282,401.273834 205.735825,401.824890 
	C195.937744,402.132904 185.978271,401.345825 176.281769,399.832916 
	C163.908340,397.902374 151.560974,395.336823 139.499207,391.978729 
	C117.736717,385.919922 98.251068,374.995453 80.203590,361.589874 
	C63.821476,349.421326 49.205193,335.226501 38.005070,318.181244 
	C29.666515,305.490936 22.436909,291.948273 15.946590,278.202911 
	C9.779527,265.142151 6.046716,251.103424 3.922271,236.706421 
	C3.434260,233.399216 1.999213,230.231766 0.999999,227.000000 
M53.430145,218.945923 
	C55.957722,229.564026 57.865292,240.378082 61.145706,250.758270 
	C67.412079,270.586914 78.426315,287.865662 92.583672,302.952209 
	C107.523651,318.872711 125.201347,330.972656 145.551605,339.267395 
	C159.735687,345.048798 174.463577,348.444031 189.536957,349.780792 
	C199.011398,350.621063 208.699554,349.660400 218.247299,348.927460 
	C233.975555,347.720093 248.779587,343.027039 263.119568,336.484314 
	C281.177460,328.245209 296.726410,316.823792 310.309235,302.348602 
	C321.981903,289.909058 330.967560,275.855438 337.878296,260.409576 
	C344.645355,245.284821 348.855927,229.306122 349.752258,212.849442 
	C350.374390,201.427231 349.151581,189.825531 347.900146,178.397415 
	C345.600800,157.399338 337.649597,138.357971 326.256317,120.695618 
	C318.329102,108.406532 309.291229,96.996101 297.538147,88.174446 
	C288.266418,81.215240 278.944672,74.065056 268.774780,68.627487 
	C256.936554,62.297897 244.202988,57.441959 230.757919,55.438141 
	C220.442596,53.900768 210.036133,52.684666 199.628494,52.170963 
	C193.844940,51.885490 187.985794,53.439114 182.143494,53.976700 
	C166.565308,55.410130 151.907928,60.060444 137.832489,66.654549 
	C120.650871,74.703850 105.730026,85.782097 92.687912,99.643791 
	C83.249542,109.675293 75.461311,120.740891 69.053452,132.818802 
	C61.462185,147.127258 56.720909,162.469543 54.121426,178.391922 
	C52.832420,186.287338 52.389465,194.356720 52.100380,202.366776 
	C51.911652,207.596130 52.686928,212.860260 53.430145,218.945923 
z"/>
<path fill="#FFFFFF" opacity="1.000000" stroke="none" 
	d="
M513.000000,461.531342 
	C509.699615,449.591827 501.403229,440.709229 492.570618,431.948944 
	C456.958313,396.628265 421.592102,361.059540 386.096039,325.621429 
	C380.835175,320.369110 374.512787,316.944061 366.866058,315.555298 
	C370.666656,308.793427 374.952606,302.340729 378.070251,295.365814 
	C383.741699,282.677551 389.336578,269.889648 393.816193,256.752106 
	C398.482544,243.066864 400.871490,228.781601 401.043518,214.201477 
	C401.115387,208.113876 402.171997,202.010208 401.911377,195.951248 
	C400.854706,171.384415 396.392914,147.471313 386.954773,124.645554 
	C379.015656,105.445168 368.510193,87.640053 355.109924,71.863663 
	C339.512054,53.499931 321.293976,38.025387 299.955414,26.379663 
	C285.384491,18.427446 270.343964,11.665255 254.223053,7.787279 
	C243.394669,5.182455 232.284348,3.749628 221.150085,1.396219 
	C318.276764,1.000000 415.553497,1.000000 513.000000,1.000000 
	C513.000000,154.354187 513.000000,307.708435 513.000000,461.531342 
z"/>
<path fill="#FFFFFF" opacity="1.000000" stroke="none" 
	d="
M0.999999,227.468658 
	C1.999213,230.231766 3.434260,233.399216 3.922271,236.706421 
	C6.046716,251.103424 9.779527,265.142151 15.946590,278.202911 
	C22.436909,291.948273 29.666515,305.490936 38.005070,318.181244 
	C49.205193,335.226501 63.821476,349.421326 80.203590,361.589874 
	C98.251068,374.995453 117.736717,385.919922 139.499207,391.978729 
	C151.560974,395.336823 163.908340,397.902374 176.281769,399.832916 
	C185.978271,401.345825 195.937744,402.132904 205.735825,401.824890 
	C223.264282,401.273834 240.630005,398.952789 257.543121,393.858856 
	C277.194336,387.940277 295.629913,379.516449 312.667267,368.052277 
	C313.275970,367.642670 314.081543,367.525665 315.382141,367.064026 
	C317.825287,381.164154 328.727234,389.143280 337.888702,398.338379 
	C371.979645,432.554565 406.196106,466.645691 440.302185,500.846863 
	C446.082001,506.642792 453.015320,510.131561 460.885315,512.632568 
	C307.756592,513.000000 154.513199,513.000000 1.000000,513.000000 
	C1.000000,417.979279 1.000000,322.958282 0.999999,227.468658 
z"/>
<path fill="#FFFFFF" opacity="1.000000" stroke="none" 
	d="
M180.531342,1.000000 
	C175.536728,1.999809 169.975647,2.635461 164.629532,4.071463 
	C151.482880,7.602737 138.113434,10.652761 125.425117,15.458204 
	C107.619873,22.201574 90.963364,31.540678 76.486427,44.062233 
	C66.948456,52.311920 58.007210,61.297112 49.230762,70.370811 
	C36.511005,83.521355 27.636137,99.288666 19.760254,115.654633 
	C12.125428,131.519684 6.805700,148.108078 3.959150,165.496414 
	C3.447505,168.621826 2.509979,171.677505 1.384541,174.882690 
	C1.000000,117.071739 1.000000,59.143482 1.000000,1.000000 
	C60.687389,1.000000 120.375038,1.000000 180.531342,1.000000 
z"/>
<path fill="#FFFFFF" opacity="1.000000" stroke="none" 
	d="
M480.468658,513.000000 
	C484.079681,511.106598 488.309418,509.478119 492.210297,507.268951 
	C502.836487,501.251099 509.654907,492.276031 512.627930,480.119995 
	C513.000000,490.926544 513.000000,501.853119 513.000000,513.000000 
	C502.313446,513.000000 491.625397,513.000000 480.468658,513.000000 
z"/>
<path fill="#FFFFFF" opacity="1.000000" stroke="none" 
	d="
M53.230263,218.527374 
	C52.686928,212.860260 51.911652,207.596130 52.100380,202.366776 
	C52.389465,194.356720 52.832420,186.287338 54.121426,178.391922 
	C56.720909,162.469543 61.462185,147.127258 69.053452,132.818802 
	C75.461311,120.740891 83.249542,109.675293 92.687912,99.643791 
	C105.730026,85.782097 120.650871,74.703850 137.832489,66.654549 
	C151.907928,60.060444 166.565308,55.410130 182.143494,53.976700 
	C187.985794,53.439114 193.844940,51.885490 199.628494,52.170963 
	C210.036133,52.684666 220.442596,53.900768 230.757919,55.438141 
	C244.202988,57.441959 256.936554,62.297897 268.774780,68.627487 
	C278.944672,74.065056 288.266418,81.215240 297.538147,88.174446 
	C309.291229,96.996101 318.329102,108.406532 326.256317,120.695618 
	C337.649597,138.357971 345.600800,157.399338 347.900146,178.397415 
	C349.151581,189.825531 350.374390,201.427231 349.752258,212.849442 
	C348.855927,229.306122 344.645355,245.284821 337.878296,260.409576 
	C330.967560,275.855438 321.981903,289.909058 310.309235,302.348602 
	C296.726410,316.823792 281.177460,328.245209 263.119568,336.484314 
	C248.779587,343.027039 233.975555,347.720093 218.247299,348.927460 
	C208.699554,349.660400 199.011398,350.621063 189.536957,349.780792 
	C174.463577,348.444031 159.735687,345.048798 145.551605,339.267395 
	C125.201347,330.972656 107.523651,318.872711 92.583672,302.952209 
	C78.426315,287.865662 67.412079,270.586914 61.145706,250.758270 
	C57.865292,240.378082 55.957722,229.564026 53.230263,218.527374 
z"/>
</svg>