<?xml version="1.0" encoding="UTF-8"?>
<!DOCTYPE svg PUBLIC "-//W3C//DTD SVG 1.1//EN" "http://www.w3.org/Graphics/SVG/1.1/DTD/svg11.dtd">
<svg xmlns="http://www.w3.org/2000/svg" version="1.1" width="512px" height="512px" style="shape-rendering:geometricPrecision; text-rendering:geometricPrecision; image-rendering:optimizeQuality; fill-rule:evenodd; clip-rule:evenodd" xmlns:xlink="http://www.w3.org/1999/xlink">
<g><path style="opacity:0.98" fill="#000000" d="M 239.5,-0.5 C 254.833,-0.5 270.167,-0.5 285.5,-0.5C 334.277,3.36299 375.777,22.6963 410,57.5C 444.886,100.533 457.552,149.533 448,204.5C 433.81,268.752 396.31,313.252 335.5,338C 299.083,349.625 263.749,346.958 229.5,330C 221.734,325.232 214.901,319.399 209,312.5C 195.831,355.013 180.497,396.679 163,437.5C 156.843,450.483 150.176,463.149 143,475.5C 133.904,487.381 125.071,499.381 116.5,511.5C 115.833,511.5 115.167,511.5 114.5,511.5C 108.67,483.585 108.17,455.585 113,427.5C 116.441,408.627 120.775,389.96 126,371.5C 139.016,328.785 151.016,285.785 162,242.5C 163.679,235.248 164.846,227.914 165.5,220.5C 163.777,212.827 161.944,205.16 160,197.5C 154.788,171.116 159.788,146.782 175,124.5C 192.86,105.195 213.693,101.028 237.5,112C 248.282,120.069 253.282,130.902 252.5,144.5C 251.329,161.854 248.163,178.854 243,195.5C 238,211.833 233,228.167 228,244.5C 223.244,267.828 232.078,283.328 254.5,291C 287.073,302.98 315.239,296.48 339,271.5C 371.579,230.178 381.913,183.844 370,132.5C 356.934,99.4384 333.434,77.2717 299.5,66C 251.703,52.2124 206.037,57.2124 162.5,81C 138.249,95.9315 123.415,117.431 118,145.5C 111.497,181.644 115.664,216.478 130.5,250C 128.043,259.671 125.21,269.171 122,278.5C 95.9618,266.457 78.2952,246.79 69,219.5C 50.9511,152.516 66.7845,95.0162 116.5,47C 152.479,18.3508 193.479,2.5175 239.5,-0.5 Z"/></g>
</svg>
