<?xml version="1.0" encoding="UTF-8"?>
<!DOCTYPE svg PUBLIC "-//W3C//DTD SVG 1.1//EN" "http://www.w3.org/Graphics/SVG/1.1/DTD/svg11.dtd">
<svg xmlns="http://www.w3.org/2000/svg" version="1.1" width="512px" height="512px" style="shape-rendering:geometricPrecision; text-rendering:geometricPrecision; image-rendering:optimizeQuality; fill-rule:evenodd; clip-rule:evenodd" xmlns:xlink="http://www.w3.org/1999/xlink">
<g><path style="opacity:0.992" fill="#000000" d="M 511.5,101.5 C 511.5,102.5 511.5,103.5 511.5,104.5C 495.863,124.983 480.363,145.65 465,166.5C 459.762,173.313 456.428,180.979 455,189.5C 457.725,233.982 452.059,277.315 438,319.5C 414.104,379.73 371.937,421.563 311.5,445C 255.608,464.735 198.275,470.735 139.5,463C 107.22,459.462 76.5534,450.462 47.5,436C 31.3146,427.742 15.3146,419.242 -0.5,410.5C -0.5,410.167 -0.5,409.833 -0.5,409.5C 27.5089,400.108 55.5089,390.608 83.5,381C 94.3935,377.22 105.06,372.886 115.5,368C 90.7725,355.272 72.9392,336.105 62,310.5C 57.789,299.701 54.289,288.701 51.5,277.5C 53.2259,277.815 54.8925,277.981 56.5,278C 29.2724,249.154 19.6058,215.321 27.5,176.5C 30.0398,177.402 32.5398,178.402 35,179.5C 35.5,179.167 36,178.833 36.5,178.5C 22.7985,147.187 21.9652,115.521 34,83.5C 38.9908,72.8494 44.4908,62.5161 50.5,52.5C 63.92,68.0912 77.92,83.2579 92.5,98C 132.298,134.06 178.964,155.894 232.5,163.5C 228.97,106.526 254.303,69.0258 308.5,51C 350.427,39.9175 388.26,47.7508 422,74.5C 446.469,66.0124 470.969,57.6791 495.5,49.5C 489.906,67.2803 483.906,84.947 477.5,102.5C 488.882,103.134 500.216,102.8 511.5,101.5 Z"/></g>
</svg>
