<?xml version="1.0" encoding="UTF-8"?>
<!DOCTYPE svg PUBLIC "-//W3C//DTD SVG 1.1//EN" "http://www.w3.org/Graphics/SVG/1.1/DTD/svg11.dtd">
<svg xmlns="http://www.w3.org/2000/svg" version="1.1" width="512px" height="512px" style="shape-rendering:geometricPrecision; text-rendering:geometricPrecision; image-rendering:optimizeQuality; fill-rule:evenodd; clip-rule:evenodd" xmlns:xlink="http://www.w3.org/1999/xlink">
<g><path style="opacity:0.997" fill="#000000" d="M 511.5,123.5 C 511.5,211.5 511.5,299.5 511.5,387.5C 504.417,419.42 485.083,439.92 453.5,449C 387.535,450.158 321.535,450.658 255.5,450.5C 189.465,450.658 123.465,450.158 57.5,449C 25.9168,439.92 6.58345,419.42 -0.5,387.5C -0.5,299.5 -0.5,211.5 -0.5,123.5C 6.58345,91.5798 25.9168,71.0798 57.5,62C 123.465,60.8419 189.465,60.3419 255.5,60.5C 321.535,60.3419 387.535,60.8419 453.5,62C 485.083,71.0798 504.417,91.5798 511.5,123.5 Z M 180.5,155.5 C 240.139,188.655 299.806,221.821 359.5,255C 300.33,289.419 240.997,323.586 181.5,357.5C 180.5,290.17 180.167,222.837 180.5,155.5 Z"/></g>
<g><path style="opacity:0.973" fill="#000000" d="M 210.5,205.5 C 240.634,222.068 270.634,238.901 300.5,256C 270.748,273.293 240.915,290.46 211,307.5C 210.5,273.502 210.333,239.502 210.5,205.5 Z"/></g>
</svg>
